<svg width="100%" height="100%" viewBox="0 0 74 74" class="" aria-hidden="true" xmlns="http://www.w3.org/2000/svg" xmlns:xlink="http://www.w3.org/1999/xlink"><g fill="#ffff"><path d="M0 37c0-1.63.654-2.974 1.96-4.035 1.308-1.061 3.023-1.592 5.144-1.592.607 0 1.43.142 2.473.427 1.042.284 2.074.88 3.097 1.79l4.775-11.367c-1.402-.076-2.586-.408-3.553-.995-.966-.587-1.638-1.07-2.017-1.45-1.705-1.704-2.558-3.504-2.558-5.399 0-1.402.493-2.595 1.478-3.58 1.023-1.023 2.235-1.535 3.637-1.535 1.857 0 3.638.853 5.343 2.558.379.379.862 1.06 1.45 2.046.586.985.88 2.179.88 3.58l11.651-4.774c-1.023-1.023-1.667-2.074-1.932-3.154-.265-1.08-.398-1.904-.398-2.472 0-2.084.521-3.78 1.563-5.087C34.035.654 35.371 0 37 0c1.63 0 2.965.654 4.007 1.96 1.042 1.308 1.563 3.004 1.563 5.088 0 .53-.133 1.345-.398 2.444-.265 1.098-.871 2.16-1.819 3.182l11.424 4.775c.076-1.402.408-2.568.995-3.496.587-.928 1.07-1.639 1.45-2.131 1.704-1.705 3.485-2.558 5.342-2.558 1.402 0 2.614.512 3.637 1.535.947 1.023 1.402 2.216 1.364 3.58 0 1.933-.814 3.733-2.444 5.4-.379.379-1.07.862-2.074 1.45-1.004.586-2.17.918-3.496.994l4.775 11.367c1.023-.947 2.055-1.554 3.097-1.819 1.042-.265 1.866-.398 2.473-.398 2.046 0 3.741.53 5.086 1.592C73.327 34.025 74 35.37 74 37c0 1.63-.673 2.965-2.018 4.007-1.345 1.042-3.04 1.563-5.086 1.563-.53 0-1.336-.152-2.416-.455-1.08-.303-2.131-.928-3.154-1.875L56.55 51.777c1.327.076 2.492.408 3.496.995s1.695 1.07 2.074 1.45c1.63 1.628 2.444 3.41 2.444 5.342 0 1.402-.454 2.576-1.364 3.524-1.023 1.023-2.235 1.515-3.637 1.477-1.933 0-3.714-.814-5.343-2.444-.379-.379-.862-1.07-1.45-2.074-.586-1.004-.918-2.207-.994-3.61l-11.424 4.775c.948 1.023 1.554 2.074 1.819 3.154.265 1.08.398 1.923.398 2.53 0 2.008-.521 3.694-1.563 5.058C39.965 73.318 38.629 74 37 74c-1.63 0-2.965-.682-4.007-2.046-1.042-1.364-1.563-3.05-1.563-5.058 0-.607.133-1.46.398-2.558.265-1.099.91-2.14 1.932-3.126l-11.65-4.774c0 1.402-.276 2.586-.825 3.552-.55.966-1.052 1.677-1.506 2.131-1.63 1.63-3.41 2.444-5.343 2.444-1.402 0-2.614-.492-3.637-1.477-1.023-.948-1.516-2.122-1.478-3.524 0-1.857.853-3.638 2.558-5.343.454-.454 1.146-.957 2.074-1.506.928-.55 2.094-.862 3.496-.938L12.674 40.24c-1.023.947-2.074 1.572-3.154 1.875-1.08.303-1.885.455-2.416.455-2.084 0-3.789-.521-5.115-1.563C.663 39.965 0 38.629 0 37zm3.24 0c0 .682.35 1.24 1.051 1.677.701.435 1.639.653 2.813.653.455 0 1.109-.16 1.961-.483.853-.322 1.582-.938 2.188-1.847-.606-1.023-1.335-1.686-2.188-1.99-.852-.302-1.506-.454-1.96-.454-1.175 0-2.113.227-2.814.682-.7.455-1.051 1.042-1.051 1.762zm9.32 22.564c0 .53.152.966.455 1.307.303.303.777.455 1.421.455 1.1 0 2.103-.512 3.013-1.535 1.023-.985 1.534-2.179 1.534-3.58 0-.455-.038-.815-.114-1.08-.303-.076-.7-.114-1.193-.114-1.402 0-2.558.474-3.467 1.42-1.099 1.1-1.648 2.142-1.648 3.127zm0-45.185c0 .948.55 1.97 1.649 3.07 1.023 1.023 2.216 1.515 3.58 1.477.455 0 .815-.038 1.08-.113.076-.228.114-.569.114-1.023 0-1.175-.256-2.075-.767-2.7-.512-.625-.767-.976-.767-1.052-1.024-1.023-2.028-1.515-3.013-1.477-.53 0-1.004.19-1.42.568-.304.303-.455.72-.455 1.25zM14.778 37l6.536 15.573L37 59.109l15.687-6.536L59.109 37l-6.422-15.743L37 14.777l-15.687 6.48L14.777 37zM34.67 66.896c0 1.098.218 2.017.653 2.756.436.739.995 1.108 1.677 1.108s1.24-.37 1.677-1.108c.435-.739.653-1.658.653-2.756 0-.455-.151-1.128-.454-2.018-.304-.89-.929-1.62-1.876-2.188-1.023.53-1.667 1.231-1.932 2.103-.266.871-.398 1.572-.398 2.103zm0-59.848c0 .454.132 1.117.398 1.989.265.871.909 1.61 1.932 2.216.947-.606 1.572-1.335 1.876-2.188.303-.852.454-1.525.454-2.017 0-1.175-.218-2.103-.653-2.785C38.24 3.58 37.682 3.24 37 3.24s-1.24.35-1.677 1.051c-.435.701-.653 1.62-.653 2.757zM55.017 56.21c0 .872.18 1.63.54 2.274.36.644.653 1.08.88 1.307 1.024 1.023 2.066 1.535 3.127 1.535.53 0 .966-.152 1.307-.455.379-.417.568-.853.568-1.307 0-1.023-.55-2.065-1.648-3.126-.227-.228-.654-.521-1.279-.881-.625-.36-1.354-.54-2.188-.54-.53 0-.928.038-1.193.114-.076.227-.114.587-.114 1.08zm0-38.42c0 .454.038.795.114 1.023.227.075.587.113 1.08.113.87 0 1.629-.19 2.273-.568.644-.379 1.08-.682 1.307-.91 1.099-.947 1.648-1.97 1.648-3.069 0-.454-.19-.871-.568-1.25-.379-.379-.853-.568-1.42-.568-.872 0-1.876.492-3.013 1.477 0 .076-.237.427-.71 1.052-.474.625-.711 1.525-.711 2.7zM62.747 37c.606.947 1.335 1.572 2.188 1.876.852.303 1.506.454 1.96.454 1.1 0 2.018-.218 2.757-.653.739-.436 1.108-.995 1.108-1.677s-.37-1.26-1.108-1.733c-.739-.474-1.658-.71-2.756-.71-.455 0-1.109.15-1.961.454-.853.303-1.582.966-2.188 1.989z" transform="translate(-323 -2549) translate(323 2549)"></path></g></svg>