<?xml version="1.0" encoding="UTF-8"?>
<svg viewBox="0 0 320 128" xmlns="http://www.w3.org/2000/svg">
  <g fill="none" fill-rule="evenodd" transform="matrix(1.0089839696884155, 0, 0, 1.0089839696884155, -29.512718200683622, -34.46195220947267)" style="">
    <g fill="#fafafa" fill-rule="evenodd" transform="matrix(1, 0, 0, 1, 33.232628, 24.67271)">
      <path d="M 123.077 7.552 L 506.189 7.552 L 506.189 143.603 C 506.189 148.785 506.544 152.985 506.282 152.985 L 128.983 152.985 L 128.983 7.552 L 123.077 7.552 Z" fill="#fafafa" style=""/>
      <path d="M 155.213 115.986 C 162.156 115.986 167.849 113.169 172.291 107.535 C 176.733 101.903 178.954 94.803 178.954 86.234 C 178.954 77.19 175.803 69.257 169.504 62.433 L 218.199 42.44 C 218.522 51.801 221.995 59.736 228.616 66.242 C 234.915 72.112 241.617 75.444 248.724 76.237 C 255.83 77.031 261.887 75.046 266.892 70.287 C 271.576 65.685 273.514 59.855 272.707 52.793 C 271.9 45.732 268.427 39.187 262.29 33.157 C 261.482 32.363 260.312 31.373 258.778 30.183 C 257.244 28.992 254.498 27.525 250.541 25.779 C 246.584 24.033 242.586 23.081 238.548 22.923 L 258.898 -25.394 C 261.807 -22.696 265.319 -20.514 269.436 -18.848 C 273.555 -17.182 276.544 -16.229 278.4 -15.992 C 280.258 -15.753 281.671 -15.635 282.64 -15.635 C 291.36 -15.635 298.589 -17.817 304.321 -22.181 C 310.055 -26.543 312.922 -32.137 312.922 -38.96 C 312.922 -45.783 310.055 -51.416 304.321 -55.86 C 298.589 -60.301 291.36 -62.523 282.64 -62.523 C 273.433 -62.523 265.52 -59.429 258.899 -53.24 L 238.549 -100.843 C 242.586 -101.159 246.584 -102.191 250.541 -103.936 C 254.498 -105.683 257.284 -107.151 258.898 -108.34 C 260.513 -109.53 261.643 -110.442 262.29 -111.077 C 268.427 -117.107 271.9 -123.652 272.707 -130.713 C 273.514 -137.775 271.577 -143.764 266.893 -148.683 C 261.887 -153.601 255.789 -155.625 248.603 -154.751 C 241.416 -153.88 234.752 -150.429 228.616 -144.398 C 221.995 -137.893 218.521 -130.039 218.199 -120.836 L 169.504 -140.829 C 175.803 -147.335 178.954 -155.188 178.954 -164.392 C 178.954 -173.119 176.733 -180.22 172.291 -185.693 C 167.849 -191.167 162.156 -193.905 155.213 -193.905 C 148.267 -193.905 142.575 -191.168 138.132 -185.693 C 133.691 -180.22 131.471 -173.119 131.471 -164.392 C 131.471 -155.188 134.781 -147.335 141.404 -140.829 L 91.739 -120.836 C 91.739 -130.039 88.429 -137.893 81.807 -144.399 C 75.67 -150.429 69.009 -153.88 61.821 -154.752 C 54.635 -155.625 48.537 -153.602 43.531 -148.682 C 38.524 -143.764 36.505 -137.775 37.474 -130.713 C 38.443 -123.653 41.997 -117.107 48.133 -111.078 C 54.431 -104.89 62.345 -101.477 71.875 -100.843 L 51.525 -53.24 C 44.904 -59.428 36.99 -62.523 27.784 -62.523 C 18.901 -62.523 11.634 -60.301 5.981 -55.86 C 0.329 -51.415 -2.499 -45.783 -2.499 -38.96 C -2.499 -32.137 0.329 -26.504 5.981 -22.062 C 11.634 -17.777 18.901 -15.635 27.785 -15.635 C 28.753 -15.635 30.166 -15.753 32.024 -15.992 C 33.881 -16.229 36.868 -17.182 40.987 -18.848 C 45.105 -20.514 48.618 -22.696 51.525 -25.393 L 71.876 22.923 C 62.67 23.241 54.756 26.652 48.134 33.157 C 41.997 39.187 38.444 45.732 37.475 52.793 C 36.506 59.854 38.525 65.685 43.532 70.287 C 48.538 75.046 54.595 77.032 61.702 76.237 C 68.807 75.444 75.51 72.112 81.808 66.242 C 88.43 59.736 91.74 51.802 91.74 42.44 L 141.405 62.433 C 134.782 69.255 131.472 77.19 131.472 86.234 C 131.472 94.803 133.692 101.903 138.133 107.535 C 142.576 113.169 148.268 115.986 155.213 115.986 Z M 155.213 -146.779 C 148.59 -150.745 145.279 -156.617 145.279 -164.392 C 145.279 -169.311 146.167 -173.199 147.944 -176.054 C 149.72 -178.911 152.143 -180.337 155.213 -180.337 C 158.281 -180.337 160.703 -178.91 162.479 -176.055 C 164.257 -173.198 165.145 -169.31 165.145 -164.392 C 165.145 -163.598 165.023 -162.409 164.782 -160.821 C 164.539 -159.234 163.569 -156.935 161.874 -153.918 C 160.178 -150.903 157.957 -148.524 155.213 -146.779 Z M 77.931 -115.125 C 70.179 -113.537 63.558 -115.442 58.065 -120.836 C 54.674 -124.008 52.495 -127.342 51.525 -130.831 C 50.556 -134.323 51.04 -137.021 52.979 -138.924 C 55.24 -140.987 58.147 -141.661 61.701 -140.947 C 65.253 -140.234 68.645 -138.291 71.875 -135.116 L 72.843 -133.926 C 73.642 -132.986 74.372 -131.992 75.025 -130.952 C 75.67 -129.92 76.356 -128.532 77.083 -126.785 C 77.8 -125.083 78.211 -123.271 78.295 -121.431 C 78.375 -119.606 78.254 -117.504 77.932 -115.124 L 77.931 -115.125 Z M 242.425 -115.599 C 239.033 -114.648 235.722 -114.488 232.493 -115.124 C 232.17 -117.504 232.049 -119.606 232.129 -121.431 C 232.211 -123.257 232.573 -125.039 233.219 -126.785 C 233.865 -128.532 234.511 -129.92 235.157 -130.952 C 235.785 -131.954 236.431 -132.945 237.095 -133.926 L 238.064 -135.116 C 241.617 -138.29 245.171 -140.234 248.724 -140.948 C 252.277 -141.662 255.023 -140.987 256.96 -138.924 C 259.222 -137.021 259.909 -134.323 259.019 -130.831 C 258.131 -127.342 255.911 -124.01 252.358 -120.836 C 251.712 -120.201 250.742 -119.408 249.451 -118.456 C 248.158 -117.504 245.817 -116.551 242.425 -115.599 Z M 155.213 53.627 L 88.348 26.255 L 60.488 -38.96 L 88.348 -104.89 L 155.213 -132.022 L 222.075 -104.89 L 249.451 -38.96 L 222.075 26.255 L 155.213 53.627 Z M 27.784 -29.202 C 22.776 -29.202 18.779 -30.074 15.792 -31.819 C 12.805 -33.564 11.31 -35.945 11.31 -38.96 C 11.31 -41.976 12.844 -44.434 15.913 -46.339 C 18.983 -48.242 22.939 -49.195 27.784 -49.195 C 28.592 -49.195 29.763 -49.076 31.296 -48.838 C 32.831 -48.6 35.132 -47.609 38.201 -45.861 C 41.27 -44.117 43.691 -41.817 45.468 -38.959 C 43.691 -36.263 41.27 -34.08 38.201 -32.414 C 35.132 -30.749 32.831 -29.796 31.296 -29.558 C 29.763 -29.32 28.592 -29.201 27.784 -29.201 L 27.784 -29.202 Z M 282.64 -29.202 C 281.832 -29.202 280.661 -29.32 279.128 -29.558 C 277.593 -29.796 275.291 -30.749 272.223 -32.414 C 269.154 -34.08 266.732 -36.263 264.955 -38.96 C 266.732 -41.816 269.154 -44.116 272.223 -45.862 C 275.292 -47.608 277.593 -48.6 279.127 -48.838 C 280.661 -49.076 281.832 -49.195 282.639 -49.195 C 287.323 -49.195 291.24 -48.242 294.39 -46.339 C 297.538 -44.434 299.114 -41.975 299.114 -38.96 C 299.114 -36.103 297.579 -33.764 294.51 -31.938 C 291.442 -30.115 287.485 -29.201 282.64 -29.201 L 282.64 -29.202 Z M 61.579 62.672 C 57.944 63.466 55.077 62.909 52.977 61.006 C 51.039 59.101 50.514 56.404 51.403 52.914 C 52.291 49.421 54.512 45.932 58.064 42.44 C 63.718 36.887 70.339 35.063 77.931 36.967 C 79.867 44.107 77.848 50.612 71.874 56.483 C 68.644 59.816 65.212 61.878 61.579 62.672 Z M 256.959 61.006 C 255.022 62.909 252.236 63.465 248.603 62.672 C 244.967 61.878 241.455 59.816 238.064 56.484 C 237.417 55.849 236.65 54.898 235.761 53.627 C 234.873 52.358 233.945 50.058 232.977 46.724 C 232.007 43.393 231.845 40.139 232.491 36.967 C 240.082 35.063 246.703 36.887 252.357 42.44 C 255.911 45.932 258.13 49.421 259.019 52.914 C 259.907 56.404 259.221 59.101 256.96 61.006 L 256.959 61.006 Z M 155.212 102.421 C 152.304 102.421 149.923 100.912 148.064 97.897 C 146.207 94.883 145.279 90.995 145.279 86.235 C 145.279 78.142 148.589 72.272 155.212 68.621 C 157.956 70.208 160.178 72.548 161.873 75.644 C 163.568 78.738 164.538 81.077 164.781 82.665 C 165.022 84.251 165.144 85.442 165.144 86.235 C 165.144 90.995 164.215 94.883 162.358 97.897 C 160.5 100.912 158.118 102.42 155.212 102.42 L 155.212 102.421 Z" fill="#fff" fill-rule="nonzero" style="transform-box: fill-box; transform-origin: 50% 50%;" transform="matrix(1, 0.000001, -0.000001, 1, 0, 0)">
        <animateTransform attributeName="transform" type="rotate" dur="7s" repeatCount="indefinite" from="0" to="360"/>
      </path>
    </g>
  </g>
</svg>